<?xml version="1.0" encoding="utf-8"?>
<!-- Generator: Adobe Illustrator 17.0.0, SVG Export Plug-In . SVG Version: 6.00 Build 0)  -->
<!DOCTYPE svg PUBLIC "-//W3C//DTD SVG 1.1//EN" "http://www.w3.org/Graphics/SVG/1.1/DTD/svg11.dtd">
<svg version="1.1" id="Calque_1" xmlns="http://www.w3.org/2000/svg" xmlns:xlink="http://www.w3.org/1999/xlink" x="0px" y="0px"
	 width="79.446px" height="79.446px" viewBox="0 0 79.446 79.446" enable-background="new 0 0 79.446 79.446" xml:space="preserve">
<g>
	<circle cx="-77.262" cy="3.618" r="4.412"/>
	<path d="M-73.356,10.803h-7.814c-0.279,0-0.506,0.227-0.506,0.506v25.467c0,0.279,0.227,0.504,0.506,0.504h7.814
		c0.279,0,0.506-0.225,0.506-0.504V11.309C-72.85,11.03-73.076,10.803-73.356,10.803z"/>
	<path d="M-42.236,17.108c-0.568-2.131-2.848-6.682-9.18-6.682c-3.801,0-6.428,1.84-7.818,3.342v-2.459
		c0-0.279-0.225-0.506-0.504-0.506h-7.816c-0.279,0-0.504,0.227-0.504,0.506v25.467c0,0.279,0.225,0.504,0.504,0.504h7.816
		c0.279,0,0.504-0.225,0.504-0.504V21.225c0.024-1.594,1.451-3.863,4.162-3.863c3.781,0,4.035,2.268,4.035,5.041v14.373
		c0,0.279,0.225,0.504,0.504,0.504h7.816c0.279,0,0.504-0.225,0.504-0.504V18.815C-42.203,17.088-42.236,17.108-42.236,17.108z"/>
</g>
<path fill="#5F3671" enable-background="new    " d="M-62.277-17.97C-84.217-17.97-102-0.187-102,21.753
	c0,21.94,17.783,39.723,39.723,39.723c21.938,0,39.723-17.783,39.723-39.723C-22.554-0.187-40.338-17.97-62.277-17.97z
	 M-72.859,36.806c0,0.279-0.227,0.504-0.506,0.504h-7.814c-0.279,0-0.506-0.225-0.506-0.504V11.339c0-0.279,0.227-0.506,0.506-0.506
	h7.814c0.279,0,0.506,0.227,0.506,0.506V36.806z M-77.271,8.06c-2.438,0-4.414-1.975-4.414-4.412s1.977-4.412,4.414-4.412
	c2.435,0,4.412,1.975,4.412,4.412S-74.836,8.06-77.271,8.06z M-42.223,18.845v17.961c0,0.279-0.225,0.504-0.504,0.504h-7.816
	c-0.279,0-0.504-0.225-0.504-0.504V22.433c0-2.773-0.254-5.041-4.035-5.041c-2.711,0-4.139,2.27-4.162,3.863v15.551
	c0,0.279-0.225,0.504-0.504,0.504h-7.816c-0.279,0-0.504-0.225-0.504-0.504V11.339c0-0.279,0.225-0.506,0.504-0.506h7.816
	c0.279,0,0.504,0.227,0.504,0.506v2.459c1.391-1.502,4.018-3.342,7.818-3.342c6.332,0,8.611,4.551,9.18,6.682
	C-42.246,17.138-42.213,17.118-42.223,18.845z"/>
<g>
	<circle fill="#FFFFFF" cx="136.883" cy="26.165" r="4.412"/>
	<path fill="#FFFFFF" d="M140.79,33.35h-7.814c-0.279,0-0.506,0.227-0.506,0.506v25.467c0,0.279,0.227,0.504,0.506,0.504h7.814
		c0.279,0,0.506-0.225,0.506-0.504V33.856C141.296,33.577,141.069,33.35,140.79,33.35z"/>
	<path fill="#FFFFFF" d="M171.909,39.655c-0.568-2.131-2.848-6.682-9.18-6.682c-3.801,0-6.428,1.84-7.818,3.342v-2.459
		c0-0.279-0.225-0.506-0.504-0.506h-7.816c-0.279,0-0.504,0.227-0.504,0.506v25.467c0,0.279,0.225,0.504,0.504,0.504h7.816
		c0.279,0,0.504-0.225,0.504-0.504V43.772c0.023-1.594,1.451-3.863,4.162-3.863c3.781,0,4.035,2.268,4.035,5.041v14.373
		c0,0.279,0.225,0.504,0.504,0.504h7.816c0.279,0,0.504-0.225,0.504-0.504V41.362C171.942,39.636,171.909,39.655,171.909,39.655z"/>
</g>
<path fill="#007BB6" d="M151.868,4.577c-21.94,0-39.723,17.784-39.723,39.723c0,21.94,17.783,39.723,39.723,39.723
	c21.938,0,39.723-17.783,39.723-39.723C191.592,22.361,173.807,4.577,151.868,4.577z M141.286,59.353
	c0,0.279-0.227,0.504-0.506,0.504h-7.814c-0.279,0-0.506-0.225-0.506-0.504V33.886c0-0.279,0.227-0.506,0.506-0.506h7.814
	c0.279,0,0.506,0.227,0.506,0.506V59.353z M136.874,30.607c-2.438,0-4.414-1.975-4.414-4.412s1.977-4.412,4.414-4.412
	c2.435,0,4.412,1.975,4.412,4.412S139.309,30.607,136.874,30.607z M171.923,41.392v17.961c0,0.279-0.225,0.504-0.504,0.504h-7.816
	c-0.279,0-0.504-0.225-0.504-0.504V44.98c0-2.773-0.254-5.041-4.035-5.041c-2.711,0-4.139,2.27-4.162,3.863v15.551
	c0,0.279-0.225,0.504-0.504,0.504h-7.816c-0.279,0-0.504-0.225-0.504-0.504V33.886c0-0.279,0.225-0.506,0.504-0.506h7.816
	c0.279,0,0.504,0.227,0.504,0.506v2.459c1.391-1.502,4.018-3.342,7.818-3.342c6.332,0,8.611,4.551,9.18,6.682
	C171.899,39.685,171.932,39.665,171.923,41.392z"/>
<circle fill="#5F3671" enable-background="new    " cx="39.723" cy="39.723" r="39.723"/>
<g>
	<circle cx="24.729" cy="21.618" r="4.412"/>
	<path d="M28.635,28.803H20.82c-0.279,0-0.506,0.227-0.506,0.506v25.467c0,0.279,0.227,0.504,0.506,0.504h7.814
		c0.279,0,0.506-0.225,0.506-0.504V29.309C29.141,29.03,28.914,28.803,28.635,28.803z"/>
	<path d="M59.754,35.108c-0.568-2.131-2.848-6.682-9.18-6.682c-3.801,0-6.428,1.84-7.818,3.342v-2.459
		c0-0.279-0.225-0.506-0.504-0.506h-7.816c-0.279,0-0.504,0.227-0.504,0.506v25.467c0,0.279,0.225,0.504,0.504,0.504h7.816
		c0.279,0,0.504-0.225,0.504-0.504V39.225c0.023-1.594,1.451-3.863,4.162-3.863c3.781,0,4.035,2.268,4.035,5.041v14.373
		c0,0.279,0.225,0.504,0.504,0.504h7.816c0.279,0,0.504-0.225,0.504-0.504V36.815C59.787,35.088,59.754,35.108,59.754,35.108z"/>
</g>
</svg>
