<?xml version="1.0" encoding="utf-8"?>
<!-- Generator: Adobe Illustrator 17.0.0, SVG Export Plug-In . SVG Version: 6.00 Build 0)  -->
<!DOCTYPE svg PUBLIC "-//W3C//DTD SVG 1.1//EN" "http://www.w3.org/Graphics/SVG/1.1/DTD/svg11.dtd">
<svg version="1.1" id="Calque_1" xmlns="http://www.w3.org/2000/svg" xmlns:xlink="http://www.w3.org/1999/xlink" x="0px" y="0px"
	 width="214px" height="213.883px" viewBox="0 0 214 213.883" enable-background="new 0 0 214 213.883" xml:space="preserve">
<g>
	<path fill="#5F3671" d="M127.045,130.756c-3.19-1.942-7.99-3.82-14.375-5.637c-0.176,5.087-0.033,11.194,0.473,18.428
		c0.401,6.72,0.258,12.738-0.396,18.092c5.438-0.597,10.272-2.332,14.468-5.257c5.049-3.671,7.567-7.968,7.567-12.901
		C134.782,138.213,132.203,133.965,127.045,130.756z"/>
	<path fill="#5F3671" d="M101.253,52.244c-5.438,0.597-10.272,2.332-14.468,5.257c-5.049,3.671-7.567,7.968-7.567,12.901
		c0,5.268,2.579,9.516,7.737,12.725c3.19,1.942,7.99,3.82,14.375,5.637c0.176-5.087,0.033-11.194-0.473-18.428
		C100.456,63.616,100.599,57.598,101.253,52.244z"/>
	<path fill="#5F3671" d="M107,0C47.906,0,0,47.879,0,106.941s47.906,106.941,107,106.941s107-47.879,107-106.941S166.094,0,107,0z
		 M136.679,164.295c-6.253,4.936-15.024,7.697-26.308,8.296c-0.489,1.454-1.011,2.854-1.616,4.149
		c-3.746,8.073-9.822,13.281-18.219,15.626c-6.512,1.823-13.242,1.38-20.188-1.32c2.881-0.333,5.482-0.819,7.803-1.471
		c5.521-1.543,10.25-4.645,14.182-9.316c2.046-2.381,3.652-5.054,4.84-8.001c-9.981-1.014-21.057-3.769-33.248-8.309
		c0-8.711-1.089-35.024-0.858-39.385c0,0,5.422,20.924,13.335,28.035c5.758,5.103,15.035,7.655,23.212,8.697
		c0.6-6.266,0.71-15.343,0.336-27.273c-0.154-4.355-0.121-8.328,0.071-11.988c-0.616-0.132-1.232-0.262-1.869-0.391
		c-13.759-2.981-24.02-7.369-30.784-13.158c-6.769-5.791-10.146-13.044-10.146-21.755c0-6.764,2.238-13.126,6.702-19.093
		c-0.456,2.866-0.687,5.505-0.687,7.914c0,5.735,1.721,11.119,5.158,16.167c3.211,4.811,7.742,8.485,13.588,11.004
		c5.736,2.524,15.366,5.45,28.893,8.772c12.841,3.096,22.189,6.879,28.035,11.353c5.735,4.468,8.597,10.946,8.597,19.431
		C147.508,151.224,143.898,158.559,136.679,164.295z M150.076,146.245c0.456-2.866,0.687-5.505,0.687-7.914
		c0-5.735-1.721-11.119-5.158-16.167c-3.211-4.811-7.742-8.485-13.588-11.004c-5.736-2.524-15.366-5.45-28.893-8.772
		c-12.841-3.096-22.189-6.879-28.035-11.353c-5.735-4.468-8.597-10.946-8.597-19.431c0-8.945,3.61-16.28,10.829-22.016
		c6.253-4.936,15.024-7.697,26.308-8.296c0.489-1.454,1.011-2.854,1.616-4.149c3.746-8.073,9.822-13.281,18.219-15.626
		c6.512-1.823,13.242-1.38,20.188,1.32c-2.881,0.333-5.482,0.819-7.803,1.471c-5.521,1.543-10.25,4.645-14.182,9.316
		c-2.046,2.381-3.652,5.054-4.84,8.001c9.981,1.014,21.057,3.769,33.248,8.309c0,8.711,1.089,35.024,0.858,39.385
		c0,0-5.422-20.924-13.335-28.035c-5.758-5.103-15.035-7.655-23.212-8.697c-0.6,6.266-0.71,15.343-0.336,27.273
		c0.154,4.355,0.121,8.328-0.071,11.988c0.616,0.132,1.232,0.262,1.869,0.391c13.759,2.981,24.02,7.369,30.784,13.158
		c6.769,5.791,10.146,13.044,10.146,21.755C156.778,133.916,154.54,140.278,150.076,146.245z"/>
</g>
</svg>
