<?xml version="1.0" encoding="utf-8"?>
<!-- Generator: Adobe Illustrator 17.0.0, SVG Export Plug-In . SVG Version: 6.00 Build 0)  -->
<!DOCTYPE svg PUBLIC "-//W3C//DTD SVG 1.1//EN" "http://www.w3.org/Graphics/SVG/1.1/DTD/svg11.dtd">
<svg version="1.1" id="Calque_1" xmlns="http://www.w3.org/2000/svg" xmlns:xlink="http://www.w3.org/1999/xlink" x="0px" y="0px"
	 width="214px" height="213.883px" viewBox="0 0 214 213.883" enable-background="new 0 0 214 213.883" xml:space="preserve">
<circle opacity="0.8" fill="#5F3671" enable-background="new    " cx="-170" cy="85.384" r="107"/>
<g opacity="0.9">
	<path fill="#FFFFFF" d="M-117.875,109.444c0-8.711-3.377-15.964-10.146-21.755c-6.764-5.789-17.025-10.177-30.784-13.158
		c-0.637-0.129-1.253-0.259-1.869-0.391c0.192-3.66,0.225-7.633,0.071-11.988c-0.374-11.93-0.264-21.007,0.336-27.273
		c8.177,1.042,17.454,3.594,23.212,8.697c7.913,7.111,13.335,28.035,13.335,28.035c0.231-4.361-0.858-30.674-0.858-39.385
		c-12.191-4.54-23.267-7.295-33.248-8.309c1.188-2.947,2.794-5.62,4.84-8.001c3.932-4.671,8.661-7.773,14.182-9.316
		c2.321-0.652,4.922-1.138,7.803-1.471c-6.946-2.7-13.676-3.143-20.188-1.32c-8.397,2.345-14.473,7.553-18.219,15.626
		c-0.605,1.295-1.127,2.695-1.616,4.149c-11.284,0.599-20.055,3.36-26.308,8.296c-7.219,5.736-10.829,13.071-10.829,22.016
		c0,8.485,2.862,14.963,8.597,19.431c5.846,4.474,15.194,8.257,28.035,11.353c13.527,3.322,23.157,6.248,28.893,8.772
		c5.846,2.519,10.377,6.193,13.588,11.004c3.437,5.048,5.158,10.432,5.158,16.167c0,2.409-0.231,5.048-0.687,7.914
		C-120.113,122.57-117.875,116.208-117.875,109.444z M-195.435,52.694c0-4.933,2.518-9.23,7.567-12.901
		c4.196-2.925,9.03-4.66,14.468-5.257c-0.654,5.354-0.797,11.372-0.396,18.092c0.506,7.234,0.649,13.341,0.473,18.428
		c-6.385-1.817-11.185-3.695-14.375-5.637C-192.856,62.21-195.435,57.962-195.435,52.694z"/>
	<path fill="#FFFFFF" d="M-138.25,107.304c-5.845-4.465-15.194-8.249-28.029-11.345c-13.534-3.327-23.163-6.247-28.898-8.771
		c-5.845-2.52-10.376-6.19-13.584-11.005c-3.442-5.045-5.161-10.432-5.161-16.165c0-2.411,0.231-5.045,0.687-7.913
		c-4.468,5.961-6.706,12.326-6.706,19.09c0,8.711,3.382,15.966,10.146,21.756c6.765,5.791,17.027,10.173,30.785,13.154
		c1.661,0.34,3.255,0.687,4.795,1.028c0.011,1.402,0.039,2.832,0.093,4.306c0.44,13.924,0.215,23.993-0.676,30.196
		c-0.198,1.502-0.489,2.948-0.858,4.339c-8.595-0.868-18.895-3.409-25.103-8.909c-7.909-7.116-13.337-28.035-13.337-28.035
		c-0.231,4.356,0.861,30.669,0.861,39.38c11.816,4.399,22.589,7.143,32.323,8.232c-0.269,0.347-0.533,0.699-0.825,1.034
		c-3.927,4.675-8.661,7.776-14.182,9.315c-2.321,0.655-4.916,1.139-7.804,1.474c6.946,2.7,13.676,3.14,20.193,1.32
		c7.342-2.051,12.912-6.291,16.701-12.725c11.306-0.599,20.088-3.36,26.347-8.304c7.22-5.73,10.828-13.071,10.828-22.013
		C-129.654,118.259-132.514,111.786-138.25,107.304z M-149.946,140.849c-3.706,2.579-7.908,4.235-12.582,4.999
		c1.628-6.874,2.184-15.139,1.606-24.879c-0.269-3.8-0.434-7.281-0.511-10.476c4.883,1.534,8.656,3.107,11.317,4.73
		c5.158,3.211,7.737,7.451,7.737,12.725C-142.38,132.881-144.898,137.182-149.946,140.849z"/>
</g>
<g opacity="0.8">
	<path d="M156.778,127.152c0-8.711-3.377-15.964-10.146-21.755c-6.764-5.789-17.025-10.177-30.784-13.158
		c-0.637-0.129-1.253-0.259-1.869-0.391c0.192-3.66,0.225-7.633,0.071-11.988c-0.374-11.93-0.264-21.007,0.336-27.273
		c8.177,1.042,17.454,3.594,23.212,8.697c7.913,7.111,13.335,28.035,13.335,28.035c0.231-4.361-0.858-30.674-0.858-39.385
		c-12.191-4.54-23.267-7.295-33.248-8.309c1.188-2.947,2.794-5.62,4.84-8.001c3.932-4.671,8.661-7.773,14.182-9.316
		c2.321-0.652,4.922-1.138,7.803-1.471c-6.946-2.7-13.676-3.143-20.188-1.32c-8.397,2.345-14.473,7.553-18.219,15.626
		c-0.605,1.295-1.127,2.695-1.616,4.149c-11.284,0.599-20.055,3.36-26.308,8.296c-7.219,5.736-10.829,13.071-10.829,22.016
		c0,8.485,2.862,14.963,8.597,19.431c5.846,4.474,15.194,8.257,28.035,11.353c13.527,3.322,23.157,6.248,28.893,8.772
		c5.846,2.519,10.377,6.193,13.588,11.004c3.437,5.048,5.158,10.432,5.158,16.167c0,2.409-0.231,5.048-0.687,7.914
		C154.54,140.278,156.778,133.916,156.778,127.152z M79.218,70.402c0-4.933,2.518-9.23,7.567-12.901
		c4.196-2.925,9.03-4.66,14.468-5.257c-0.654,5.354-0.797,11.372-0.396,18.092c0.506,7.234,0.649,13.341,0.473,18.428
		c-6.385-1.817-11.185-3.695-14.375-5.637C81.797,79.918,79.218,75.67,79.218,70.402z"/>
	<path d="M57.222,86.731c0,8.711,3.377,15.964,10.146,21.755c6.764,5.789,17.025,10.177,30.784,13.158
		c0.637,0.129,1.253,0.259,1.869,0.391c-0.192,3.66-0.225,7.633-0.071,11.988c0.374,11.93,0.264,21.007-0.336,27.273
		c-8.177-1.042-17.454-3.594-23.212-8.697c-7.913-7.111-13.335-28.035-13.335-28.035c-0.231,4.361,0.858,30.674,0.858,39.385
		c12.191,4.54,23.267,7.295,33.248,8.309c-1.188,2.947-2.794,5.62-4.84,8.001c-3.932,4.671-8.661,7.773-14.182,9.316
		c-2.321,0.652-4.922,1.138-7.803,1.471c6.946,2.7,13.676,3.143,20.188,1.32c8.397-2.345,14.473-7.553,18.219-15.626
		c0.605-1.295,1.127-2.695,1.616-4.149c11.284-0.599,20.055-3.36,26.308-8.296c7.219-5.736,10.829-13.071,10.829-22.016
		c0-8.485-2.862-14.963-8.597-19.431c-5.846-4.474-15.194-8.257-28.035-11.353c-13.527-3.322-23.157-6.248-28.893-8.772
		c-5.846-2.519-10.377-6.193-13.588-11.004c-3.437-5.048-5.158-10.432-5.158-16.167c0-2.409,0.231-5.048,0.687-7.914
		C59.46,73.605,57.222,79.967,57.222,86.731z M134.782,143.481c0,4.933-2.518,9.23-7.567,12.901
		c-4.196,2.925-9.03,4.66-14.468,5.257c0.654-5.354,0.797-11.372,0.396-18.092c-0.506-7.234-0.649-13.341-0.473-18.428
		c6.385,1.817,11.185,3.695,14.375,5.637C132.203,133.965,134.782,138.213,134.782,143.481z"/>
</g>
<g>
	<path opacity="0.8" fill="#5F3671" d="M127.045,130.756c-3.19-1.942-7.99-3.82-14.375-5.637
		c-0.176,5.087-0.033,11.194,0.473,18.428c0.401,6.72,0.258,12.738-0.396,18.092c5.438-0.597,10.272-2.332,14.468-5.257
		c5.049-3.671,7.567-7.968,7.567-12.901C134.782,138.213,132.203,133.965,127.045,130.756z"/>
	<path opacity="0.8" fill="#5F3671" d="M101.253,52.244c-5.438,0.597-10.272,2.332-14.468,5.257
		c-5.049,3.671-7.567,7.968-7.567,12.901c0,5.268,2.579,9.516,7.737,12.725c3.19,1.942,7.99,3.82,14.375,5.637
		c0.176-5.087,0.033-11.194-0.473-18.428C100.456,63.616,100.599,57.598,101.253,52.244z"/>
	<path opacity="0.8" fill="#5F3671" d="M107,0C47.906,0,0,47.879,0,106.941s47.906,106.941,107,106.941s107-47.879,107-106.941
		S166.094,0,107,0z M136.679,164.295c-6.253,4.936-15.024,7.697-26.308,8.296c-0.489,1.454-1.011,2.854-1.616,4.149
		c-3.746,8.073-9.822,13.281-18.219,15.626c-6.512,1.823-13.242,1.38-20.188-1.32c2.881-0.333,5.482-0.819,7.803-1.471
		c5.521-1.543,10.25-4.645,14.182-9.316c2.046-2.381,3.652-5.054,4.84-8.001c-9.981-1.014-21.057-3.769-33.248-8.309
		c0-8.711-1.089-35.024-0.858-39.385c0,0,5.422,20.924,13.335,28.035c5.758,5.103,15.035,7.655,23.212,8.697
		c0.6-6.266,0.71-15.343,0.336-27.273c-0.154-4.355-0.121-8.328,0.071-11.988c-0.616-0.132-1.232-0.262-1.869-0.391
		c-13.759-2.981-24.02-7.369-30.784-13.158c-6.769-5.791-10.146-13.044-10.146-21.755c0-6.764,2.238-13.126,6.702-19.093
		c-0.456,2.866-0.687,5.505-0.687,7.914c0,5.735,1.721,11.119,5.158,16.167c3.211,4.811,7.742,8.485,13.588,11.004
		c5.736,2.524,15.366,5.45,28.893,8.772c12.841,3.096,22.189,6.879,28.035,11.353c5.735,4.468,8.597,10.946,8.597,19.431
		C147.508,151.224,143.898,158.559,136.679,164.295z M150.076,146.245c0.456-2.866,0.687-5.505,0.687-7.914
		c0-5.735-1.721-11.119-5.158-16.167c-3.211-4.811-7.742-8.485-13.588-11.004c-5.736-2.524-15.366-5.45-28.893-8.772
		c-12.841-3.096-22.189-6.879-28.035-11.353c-5.735-4.468-8.597-10.946-8.597-19.431c0-8.945,3.61-16.28,10.829-22.016
		c6.253-4.936,15.024-7.697,26.308-8.296c0.489-1.454,1.011-2.854,1.616-4.149c3.746-8.073,9.822-13.281,18.219-15.626
		c6.512-1.823,13.242-1.38,20.188,1.32c-2.881,0.333-5.482,0.819-7.803,1.471c-5.521,1.543-10.25,4.645-14.182,9.316
		c-2.046,2.381-3.652,5.054-4.84,8.001c9.981,1.014,21.057,3.769,33.248,8.309c0,8.711,1.089,35.024,0.858,39.385
		c0,0-5.422-20.924-13.335-28.035c-5.758-5.103-15.035-7.655-23.212-8.697c-0.6,6.266-0.71,15.343-0.336,27.273
		c0.154,4.355,0.121,8.328-0.071,11.988c0.616,0.132,1.232,0.262,1.869,0.391c13.759,2.981,24.02,7.369,30.784,13.158
		c6.769,5.791,10.146,13.044,10.146,21.755C156.778,133.916,154.54,140.278,150.076,146.245z"/>
</g>
</svg>
